<svg id="Calque_1" data-name="Calque 1" xmlns="http://www.w3.org/2000/svg" xmlns:xlink="http://www.w3.org/1999/xlink" viewBox="0 0 119.05 123.4"><defs><style>.cls-1{fill:url(#Dégradé_sans_nom_135);}</style><radialGradient id="Dégradé_sans_nom_135" cx="427.64" cy="345.46" r="61.05" gradientTransform="matrix(0.97, 0.26, -0.26, 0.97, 75.09, -44.02)" gradientUnits="userSpaceOnUse"><stop offset="0" stop-color="#006fc9"/><stop offset="1" stop-color="#15ffba"/></radialGradient></defs><title>gear3</title><path class="cls-1" d="M446.36,408a47,47,0,0,0,0-16.83c9.81-4.16,13-8.06,13-8.06l-.85-2.59-.84-2.59s-4.88-1.27-15.25,1.12a47.4,47.4,0,0,0-9.91-13.61c5.49-9.13,5.79-14.17,5.79-14.17l-2.2-1.6L433.91,348s-4.69,1.85-11.67,9.88a47,47,0,0,0-16-5.19c-.93-10.61-3.64-14.87-3.64-14.87h-5.45s-2.72,4.26-3.65,14.87a46.92,46.92,0,0,0-16,5.19c-7-8-11.68-9.88-11.68-9.88l-2.21,1.61-2.2,1.6s.31,5,5.79,14.17A47.4,47.4,0,0,0,357.26,379c-10.37-2.39-15.25-1.12-15.25-1.12l-.84,2.59-.84,2.59s3.21,3.9,13,8.06a47,47,0,0,0,0,16.83c-9.8,4.16-13,8.06-13,8.06l.84,2.59.84,2.59s4.88,1.27,15.25-1.12a47.35,47.35,0,0,0,9.91,13.6c-5.48,9.14-5.79,14.18-5.79,14.18l2.2,1.6,2.21,1.6s4.69-1.84,11.68-9.87a47.14,47.14,0,0,0,16,5.19c.93,10.61,3.65,14.86,3.65,14.86h5.45s2.71-4.25,3.64-14.86a47.2,47.2,0,0,0,16-5.19c7,8,11.67,9.87,11.67,9.87l2.21-1.6,2.2-1.6s-.3-5-5.79-14.18a47.35,47.35,0,0,0,9.91-13.6c10.37,2.39,15.25,1.12,15.25,1.12l.84-2.59.84-2.59S456.17,412.12,446.36,408Zm-46.51,18.92a27.34,27.34,0,1,1,27.34-27.34A27.34,27.34,0,0,1,399.85,426.88Z" transform="translate(-340.33 -337.84)"/></svg>