<?xml version="1.0" encoding="utf-8"?>
<!-- Generator: Adobe Illustrator 23.1.0, SVG Export Plug-In . SVG Version: 6.00 Build 0)  -->
<svg version="1.1" id="Calque_1" xmlns="http://www.w3.org/2000/svg" xmlns:xlink="http://www.w3.org/1999/xlink" x="0px" y="0px"
	 viewBox="0 0 60 60.5" style="enable-background:new 0 0 60 60.5;" xml:space="preserve">
<style type="text/css">
	.st0{fill:url(#SVGID_1_);}
</style>
<title>gear2</title>
<radialGradient id="SVGID_1_" cx="399.83" cy="-337.52" r="30.1052" gradientTransform="matrix(1 0 0 -1 -369.85 -307.3)" gradientUnits="userSpaceOnUse">
	<stop  offset="0" style="stop-color:#2058D3"/>
	<stop  offset="0.3223" style="stop-color:#3870DE"/>
	<stop  offset="0.9988" style="stop-color:#74AEF9"/>
</radialGradient>
<path class="st0" d="M53,30.2L53,30.2l7-3.9c-0.2-1.6-0.5-3.2-1-4.7L51,21c-0.7-1.5-1.5-3-2.5-4.4l3.5-7.2c-1.1-1.2-2.3-2.3-3.6-3.2
	l-6.8,4.2c-1.4-0.8-3-1.5-4.6-2l-1.4-7.9C33.9,0.2,32.3,0,30.7,0l-3.1,7.4c-1.7,0.2-3.3,0.5-4.9,1L17,2.9c-1.5,0.7-2.8,1.5-4.2,2.4
	l1.9,7.8c-1.3,1.1-2.4,2.4-3.4,3.7l-7.9-1.1c-0.8,1.4-1.5,2.9-2,4.4l6.1,5.2C7.2,26.9,7,28.5,7,30.2c0,0,0,0.1,0,0.1l-7,3.8
	c0.2,1.6,0.5,3.2,1,4.7l8,0.6c0.7,1.5,1.5,3,2.5,4.3L8,51c1.1,1.2,2.3,2.3,3.6,3.2l6.8-4.2c1.4,0.9,3,1.5,4.6,2l1.4,7.9
	c1.6,0.3,3.2,0.5,4.8,0.5l3-7.4c1.7-0.2,3.3-0.5,4.9-1l5.8,5.5c1.4-0.7,2.8-1.5,4.2-2.4l-1.9-7.8c1.3-1.1,2.4-2.4,3.4-3.7l7.9,1.1
	c0.8-1.4,1.5-2.9,2-4.4l-6.1-5.2C52.8,33.5,53,31.9,53,30.2z M30,43.4c-7.3,0-13.1-5.9-13.1-13.2c0-7.3,5.9-13.1,13.2-13.1
	c7.2,0,13.1,5.9,13.1,13.1C43.2,37.5,37.3,43.4,30,43.4C30,43.4,30,43.4,30,43.4L30,43.4z"/>
</svg>
